# xmcd
#
# Track frame offsets: 
#        150
#        17130
#        36488
#        54552
#        75779
#        98177
#        112635
#        130071
#        148995
#        171360
#        191155
#
# Disc length: 2740 seconds
#
# Revision: 1
# Processed by: cddbd v1.5.2PL0 Copyright (c) Steve Scherf et al.
# Submitted via: ExactAudioCopy v1.0b3
#
DISCID=900ab20b
DTITLE=Otis Spann - Walkin' the Blues
DYEAR=1972
DGENRE=Other
TTITLE0=It Must Have Been the Devil
TTITLE1=Otis Blues
TTITLE2=Going Down Slow
TTITLE3=Half Ain't Been Told
TTITLE4=Monkey Woman
TTITLE5=This Is the Blues
TTITLE6=Evil Ways
TTITLE7=Come Day Go Day
TTITLE8=Walkin' the Blues
TTITLE9=Bad Condition
TTITLE10=My Home Is In the Delta
EXTD=CCD 79025\n\nRecorded August 23rd, 1960 at Fine Recording Studios
EXTD=, New York City.
EXTT0=
EXTT1=
EXTT2=
EXTT3=
EXTT4=
EXTT5=
EXTT6=
EXTT7=
EXTT8=
EXTT9=
EXTT10=
PLAYORDER=
